<svg width="44" height="55" viewBox="0 0 44 55" fill="none" xmlns="http://www.w3.org/2000/svg">
<path fill-rule="evenodd" clip-rule="evenodd" d="M31.4648 41.5409C31.2967 41.3793 31.0715 41.2899 30.8378 41.2919C30.604 41.2939 30.3804 41.3871 30.215 41.5515C30.0496 41.7159 29.9556 41.9383 29.9533 42.171C29.951 42.4036 30.0405 42.6279 30.2025 42.7955L32.7585 45.3396L30.2025 47.8842C30.0782 48.0084 29.9936 48.1665 29.9594 48.3385C29.9252 48.5105 29.9431 48.6888 30.0106 48.8507C30.0781 49.0127 30.1923 49.1511 30.3388 49.2485C30.4853 49.3459 30.6575 49.3979 30.8337 49.3979C31.0703 49.3974 31.2972 49.3038 31.4648 49.1376L34.0214 46.5942L36.5718 49.1376C36.7397 49.3038 36.9667 49.3974 37.2036 49.3979C37.3797 49.3979 37.5519 49.3459 37.6984 49.2485C37.8449 49.1511 37.9591 49.0127 38.0267 48.8507C38.0942 48.6888 38.112 48.5105 38.0778 48.3385C38.0437 48.1665 37.9591 48.0084 37.8347 47.8842L35.2788 45.3396L37.8347 42.7955C38.0019 42.6288 38.0956 42.4028 38.0954 42.1673C38.0952 41.9318 38.001 41.706 37.8335 41.5397C37.666 41.3733 37.439 41.28 37.2024 41.2802C36.9658 41.2804 36.7389 41.3742 36.5718 41.5409L34.0214 44.0843L31.4648 41.5409ZM13.6145 39.5817C13.6287 39.8075 13.7286 40.0196 13.894 40.1748C14.0595 40.33 14.278 40.4169 14.5054 40.4177C14.5256 40.4177 14.541 40.4177 14.5563 40.4177C14.6737 40.4114 14.7886 40.3821 14.8945 40.3314C15.0004 40.2807 15.0952 40.2095 15.1733 40.1221C15.2514 40.0347 15.3113 39.9328 15.3496 39.8222C15.3878 39.7116 15.4037 39.5945 15.3962 39.4778L14.0523 16.1755C14.0472 16.0582 14.0188 15.943 13.9687 15.8367C13.9186 15.7304 13.8477 15.635 13.7603 15.5562C13.6728 15.4774 13.5704 15.4167 13.4592 15.3776C13.3479 15.3385 13.23 15.3218 13.1122 15.3285C12.9944 15.3352 12.8791 15.3651 12.773 15.4165C12.6669 15.4679 12.5722 15.5398 12.4943 15.628C12.4164 15.7162 12.3568 15.819 12.3192 15.9303C12.2815 16.0416 12.2664 16.1592 12.2748 16.2763L13.6145 39.5817ZM21.0987 39.5309C21.1107 39.7579 21.2097 39.9716 21.3753 40.1281C21.541 40.2845 21.7606 40.3717 21.9889 40.3717C22.2173 40.3717 22.4369 40.2845 22.6026 40.1281C22.7682 39.9716 22.8672 39.7579 22.8792 39.5309L22.8792 16.2262C22.8855 16.1059 22.8672 15.9856 22.8254 15.8726C22.7835 15.7596 22.7189 15.6563 22.6356 15.5689C22.5524 15.4815 22.4521 15.412 22.3409 15.3644C22.2297 15.3169 22.11 15.2923 21.9889 15.2923C21.8679 15.2923 21.7482 15.3169 21.637 15.3644C21.5258 15.412 21.4255 15.4815 21.3423 15.5689C21.259 15.6563 21.1944 15.7596 21.1525 15.8726C21.1107 15.9856 21.0924 16.1059 21.0987 16.2262L21.0987 39.5309ZM30.2228 4.88095V1.97756C30.2223 1.92378 30.2007 1.87232 30.1626 1.83418C30.1246 1.79604 30.073 1.77424 30.019 1.77345L13.9602 1.77345C13.9057 1.77421 13.8537 1.79587 13.8149 1.8339C13.7761 1.87193 13.7536 1.92339 13.752 1.97756V4.88339L30.2228 4.88095ZM24.3116 45.3365C24.3123 43.4263 24.882 41.5593 25.9486 39.9713C27.0152 38.3833 28.5309 37.1458 30.304 36.4151C32.0771 35.6844 34.0281 35.4933 35.9103 35.866C37.7924 36.2388 39.5214 37.1586 40.8784 38.5092C42.2355 39.8598 43.1598 41.5806 43.5346 43.454C43.9093 45.3274 43.7176 47.2693 42.9837 49.0343C42.2498 50.7993 41.0067 52.308 39.4114 53.3699C37.8162 54.4318 35.9405 54.999 34.0214 55C31.4476 54.9979 28.9797 53.9796 27.1594 52.1685C25.339 50.3574 24.3148 47.9014 24.3116 45.3396V45.3365ZM32.0076 1.97756V4.88339L43.1553 4.88339C43.3833 4.89532 43.5981 4.99387 43.7552 5.15874C43.9124 5.32361 44 5.54223 44 5.7695C44 5.99678 43.9124 6.21539 43.7552 6.38026C43.5981 6.54513 43.3833 6.64369 43.1553 6.65561L41.3938 6.65561L38.631 34.8645C36.1208 33.7689 33.2995 33.6039 30.6777 34.3994C30.6777 28.7363 31.3856 22.0379 31.7215 16.2739C31.7327 16.0384 31.65 15.8081 31.4915 15.633C31.3329 15.4578 31.1113 15.3522 30.8748 15.3389C30.7581 15.3322 30.6412 15.3486 30.5308 15.387C30.4204 15.4255 30.3188 15.4853 30.2317 15.563C30.1446 15.6407 30.0739 15.7347 30.0234 15.8397C29.973 15.9448 29.944 16.0587 29.9379 16.1749L28.8432 35.1334C27.4644 35.8269 26.2403 36.7901 25.244 37.9653C24.2478 39.1405 23.4998 40.5036 23.0449 41.9732C22.59 43.4427 22.4375 44.9884 22.5965 46.5179C22.7555 48.0474 23.2227 49.5293 23.9702 50.875L9.97862 50.875C9.14537 50.8783 8.34105 50.5711 7.72386 50.0139C7.10668 49.4567 6.72131 48.6898 6.64357 47.8641L2.60616 6.66111H0.844699C0.616678 6.64919 0.401946 6.55063 0.244781 6.38576C0.0876156 6.22089 0 6.00228 0 5.775C0 5.54773 0.0876156 5.32911 0.244781 5.16424C0.401946 4.99937 0.616678 4.90082 0.844699 4.88889L11.9697 4.88889V1.97756C11.9715 1.45299 12.1819 0.950466 12.5549 0.579882C12.9279 0.209297 13.4331 0.000806282 13.9602 1.5115e-06L30.019 1.5115e-06C30.28 -0.000319828 30.5386 0.0505985 30.7799 0.149844C31.0212 0.249089 31.2405 0.394713 31.4252 0.578386C31.6099 0.762059 31.7564 0.980177 31.8563 1.22026C31.9563 1.46034 32.0077 1.71768 32.0076 1.97756Z" fill="white"/>
</svg>
